<?xml version="1.0" encoding="UTF-8"?>
<svg width="15px" height="15px" viewBox="0 0 15 15" version="1.1" xmlns="http://www.w3.org/2000/svg" xmlns:xlink="http://www.w3.org/1999/xlink">
    <!-- Generator: Sketch 48.1 (47250) - http://www.bohemiancoding.com/sketch -->
    <title>Download</title>
    <desc>Created with Sketch.</desc>
    <defs></defs>
    <g id="Extra-large:-Desktops---12-col-Copy" stroke="none" stroke-width="1" fill="none" fill-rule="evenodd" transform="translate(-845.000000, -547.000000)">
        <g id="Middle-Content" transform="translate(259.000000, 282.000000)" fill="#C3C3C3" fill-rule="nonzero">
            <g id="Links" transform="translate(211.000000, 265.000000)">
                <g id="Resume" transform="translate(265.000000, 0.000000)">
                    <g id="Download" transform="translate(110.000000, 0.000000)">
                        <path d="M3.60886364,7.30039773 C3.34259021,7.0341243 3.34259021,6.60240979 3.60886364,6.33613636 C3.87513706,6.06986294 4.30685158,6.06986294 4.573125,6.33613636 L6.81818182,8.58136364 L6.81818182,0.681818182 C6.81818182,0.305260398 7.12344222,0 7.5,0 C7.87655778,-7.56970244e-17 8.18181818,0.305260398 8.18181818,0.681818182 L8.18181818,8.58119318 L10.4270455,6.33613636 C10.5986381,6.16069048 10.8512784,6.09099547 11.0885545,6.15364812 C11.3258306,6.21630076 11.5111309,6.40163377 11.5737416,6.63892095 C11.6363523,6.87620812 11.5666126,7.12883607 11.3911364,7.30039773 L7.98204545,10.7094886 C7.85429459,10.8374904 7.68084451,10.9093729 7.5,10.9092614 C7.31910764,10.9093618 7.14560865,10.8374845 7.01778409,10.7094886 L3.60886364,7.30039773 Z M14.3181818,9.545625 C13.9416906,9.54562499 13.6364578,9.85078151 13.6363636,10.2272727 L13.6363636,12.9547159 C13.6363636,13.3305682 13.3385795,13.6363636 12.9724432,13.6363636 L2.04545455,13.6363636 C1.66960227,13.6363636 1.36363636,13.3305682 1.36363636,12.9547159 L1.36363636,10.2272727 C1.35774911,9.85496472 1.05425797,9.5562347 0.681903409,9.5562347 C0.309548853,9.5562347 0.00605771304,9.85496472 0.000170454545,10.2272727 L0.000170454545,12.9547159 C0.000170454545,13.2305114 0.054375,13.4982955 0.161079545,13.7510795 C0.263600599,13.9940704 0.412383233,14.2148128 0.599147727,14.4010227 C0.785439067,14.5876456 1.00616381,14.7363584 1.24909091,14.8389205 C1.50170455,14.9461364 1.76948864,15 2.04545455,15 L12.9724432,15 C13.5126633,14.9999048 14.0302313,14.7829414 14.4090341,14.3977841 C14.5936949,14.211109 14.7404845,13.9904615 14.8413068,13.7480114 C14.9464773,13.49625 14.9998295,13.2293182 14.9998295,12.9547159 L14.9998295,10.2272727 C14.9998748,10.0464746 14.928073,9.8730686 14.8002295,9.74522505 C14.6723859,9.6173815 14.4989799,9.54557977 14.3181818,9.545625 Z" id="Shape"></path>
                    </g>
                </g>
            </g>
        </g>
    </g>
</svg>