<?xml version="1.0" encoding="UTF-8"?>
<svg width="32px" height="19px" viewBox="0 0 32 19" version="1.1" xmlns="http://www.w3.org/2000/svg" xmlns:xlink="http://www.w3.org/1999/xlink">
    <!-- Generator: Sketch 49.2 (51160) - http://www.bohemiancoding.com/sketch -->
    <title>eye</title>
    <desc>Created with Sketch.</desc>
    <defs></defs>
    <g id="Page-1" stroke="none" stroke-width="1" fill="none" fill-rule="evenodd">
        <g id="i-eye-g" fill="#C3C3C3">
            <path d="M31.4179688,9.25 L31.5,9.33203125 L31.0078125,9.82421875 C28.2734238,12.5586074 26.1406327,14.4453073 24.609375,15.484375 C21.6562352,17.4531348 18.7031398,18.4375 15.75,18.4375 C13.6171768,18.4375 11.5800878,17.9726609 9.63867188,17.0429688 C7.69725592,16.1132766 6.20703645,15.1835984 5.16796875,14.2539062 C4.12890105,13.3242141 2.59766637,11.8476664 0.57421875,9.82421875 L0,9.25 L0.08203125,9.16796875 C3.08985879,6.10545344 5.66014559,3.89063184 7.79296875,2.5234375 C10.4179819,0.882804297 13.0702991,0.0625 15.75,0.0625 C20.8906507,0.0625 26.1132547,3.12496937 31.4179688,9.25 Z M15.75,1.375 C13.343738,1.375 11.0742294,2.0175717 8.94140625,3.30273438 C6.80858309,4.58789705 4.42970062,6.5702991 1.8046875,9.25 C4.75782727,12.2031398 6.83593148,14.0624962 8.0390625,14.828125 C10.335949,16.3593827 12.9062358,17.125 15.75,17.125 C17.6640721,17.125 19.5917872,16.6464892 21.5332031,15.6894531 C23.4746191,14.7324171 24.9785103,13.7890671 26.0449219,12.859375 C27.1113335,11.9296829 28.3554616,10.7539134 29.7773437,9.33203125 C27.7538961,7.08983254 25.7304789,5.28516309 23.7070312,3.91796875 C21.1367059,2.22264777 18.4843887,1.375 15.75,1.375 Z M15.75,15.8125 C13.9453035,15.8125 12.4003971,15.1699283 11.1152344,13.8847656 C9.8300717,12.5996029 9.1875,11.0546965 9.1875,9.25 C9.1875,7.44530348 9.8300717,5.90039705 11.1152344,4.61523438 C12.4003971,3.3300717 13.9453035,2.6875 15.75,2.6875 C17.5546965,2.6875 19.0996029,3.3300717 20.3847656,4.61523438 C21.6699283,5.90039705 22.3125,7.44530348 22.3125,9.25 C22.3125,11.0546965 21.6699283,12.5996029 20.3847656,13.8847656 C19.0996029,15.1699283 17.5546965,15.8125 15.75,15.8125 Z M15.75,4 C14.3281179,4 13.0976614,4.51952605 12.0585938,5.55859375 C11.0195261,6.59766145 10.5,7.82811789 10.5,9.25 C10.5,10.6718821 11.0195261,11.9023386 12.0585938,12.9414062 C13.0976614,13.9804739 14.3281179,14.5 15.75,14.5 C17.1718821,14.5 18.4023386,13.9804739 19.4414062,12.9414062 C20.4804739,11.9023386 21,10.6718821 21,9.25 C21,7.82811789 20.4804739,6.59766145 19.4414062,5.55859375 C18.4023386,4.51952605 17.1718821,4 15.75,4 Z M18.375,9.25 L19.6875,9.25 C19.6875,10.3437555 19.3046913,11.2734337 18.5390625,12.0390625 C17.7734337,12.8046913 16.8437555,13.1875 15.75,13.1875 C14.6562445,13.1875 13.7265663,12.8046913 12.9609375,12.0390625 C12.1953087,11.2734337 11.8125,10.3437555 11.8125,9.25 C11.8125,8.15624453 12.1953087,7.22656633 12.9609375,6.4609375 C13.7265663,5.69530867 14.6562445,5.3125 15.75,5.3125 L15.75,6.625 C15.0937467,6.625 14.4921902,6.87109129 13.9453125,7.36328125 C13.3984348,7.85547121 13.125,8.4570277 13.125,9.16796875 C13.125,9.8789098 13.384763,10.5078098 13.9042969,11.0546875 C14.4238307,11.6015652 15.0390589,11.875 15.75,11.875 C16.4609411,11.875 17.0761693,11.615237 17.5957031,11.0957031 C18.115237,10.5761693 18.375,9.96094105 18.375,9.25 Z" id="eye"></path>
        </g>
    </g>
</svg>