<?xml version="1.0" encoding="UTF-8"?>
<svg width="20px" height="21px" viewBox="0 0 20 21" version="1.1" xmlns="http://www.w3.org/2000/svg" xmlns:xlink="http://www.w3.org/1999/xlink">
    <!-- Generator: Sketch 49.2 (51160) - http://www.bohemiancoding.com/sketch -->
    <title>i-ui-g</title>
    <desc>Created with Sketch.</desc>
    <defs></defs>
    <g id="Page-1" stroke="none" stroke-width="1" fill="none" fill-rule="evenodd">
        <g id="i-ui-g" fill="#C3C3C3">
            <path d="M18.75,20.25 L12.5,20.25 C12.1484357,20.25 11.8522147,20.1295585 11.6113281,19.8886719 C11.3704415,19.6477853 11.25,19.3515643 11.25,19 L11.25,12.75 C11.25,12.3984357 11.3704415,12.1022147 11.6113281,11.8613281 C11.8522147,11.6204415 12.1484357,11.5 12.5,11.5 L18.75,11.5 C19.1015643,11.5 19.3977853,11.6204415 19.6386719,11.8613281 C19.8795585,12.1022147 20,12.3984357 20,12.75 L20,19 C20,19.3515643 19.8795585,19.6477853 19.6386719,19.8886719 C19.3977853,20.1295585 19.1015643,20.25 18.75,20.25 Z M18.75,12.75 L12.5,12.75 L12.5,19 L18.75,19 L18.75,12.75 Z M18.75,9 L12.5,9 C12.1484357,9 11.8522147,8.8795585 11.6113281,8.63867188 C11.3704415,8.39778525 11.25,8.10156426 11.25,7.75 L11.25,1.5 C11.25,1.14843574 11.3704415,0.852214746 11.6113281,0.611328125 C11.8522147,0.370441504 12.1484357,0.25 12.5,0.25 L18.75,0.25 C19.1015643,0.25 19.3977853,0.370441504 19.6386719,0.611328125 C19.8795585,0.852214746 20,1.14843574 20,1.5 L20,7.75 C20,8.10156426 19.8795585,8.39778525 19.6386719,8.63867188 C19.3977853,8.8795585 19.1015643,9 18.75,9 Z M18.75,1.5 L12.5,1.5 L12.5,7.75 L18.75,7.75 L18.75,1.5 Z M7.5,20.25 L1.25,20.25 C0.898435742,20.25 0.602214746,20.1295585 0.361328125,19.8886719 C0.120441504,19.6477853 0,19.3515643 0,19 L0,12.75 C0,12.3984357 0.120441504,12.1022147 0.361328125,11.8613281 C0.602214746,11.6204415 0.898435742,11.5 1.25,11.5 L7.5,11.5 C7.85156426,11.5 8.14778525,11.6204415 8.38867188,11.8613281 C8.6295585,12.1022147 8.75,12.3984357 8.75,12.75 L8.75,19 C8.75,19.3515643 8.6295585,19.6477853 8.38867188,19.8886719 C8.14778525,20.1295585 7.85156426,20.25 7.5,20.25 Z M7.5,12.75 L1.25,12.75 L1.25,19 L7.5,19 L7.5,12.75 Z M7.5,9 L1.25,9 C0.898435742,9 0.602214746,8.8795585 0.361328125,8.63867188 C0.120441504,8.39778525 0,8.10156426 0,7.75 L0,1.5 C0,1.14843574 0.120441504,0.852214746 0.361328125,0.611328125 C0.602214746,0.370441504 0.898435742,0.25 1.25,0.25 L7.5,0.25 C7.85156426,0.25 8.14778525,0.370441504 8.38867188,0.611328125 C8.6295585,0.852214746 8.75,1.14843574 8.75,1.5 L8.75,7.75 C8.75,8.10156426 8.6295585,8.39778525 8.38867188,8.63867188 C8.14778525,8.8795585 7.85156426,9 7.5,9 Z M7.5,1.5 L1.25,1.5 L1.25,7.75 L7.5,7.75 L7.5,1.5 Z" id="îª"></path>
        </g>
    </g>
</svg>