<?xml version="1.0" encoding="UTF-8"?>
<svg width="22px" height="23px" viewBox="0 0 22 23" version="1.1" xmlns="http://www.w3.org/2000/svg" xmlns:xlink="http://www.w3.org/1999/xlink">
    <!-- Generator: Sketch 49.2 (51160) - http://www.bohemiancoding.com/sketch -->
    <title>ux</title>
    <desc>Created with Sketch.</desc>
    <defs></defs>
    <g id="Page-1" stroke="none" stroke-width="1" fill="none" fill-rule="evenodd">
        <g id="i-ux-g" fill="#C3C3C3">
            <path d="M16.7792969,13.4160156 C16.9511727,13.5019536 17.0729163,13.6308585 17.1445313,13.8027344 C17.2161462,13.9746102 17.2089848,14.1464835 17.1230469,14.3183594 C17.1087239,14.3613283 16.9869803,14.5904927 16.7578125,15.0058594 C16.5286447,15.421226 16.1669947,15.8688127 15.6728516,16.3486328 C15.1787085,16.8284529 14.5449257,17.2688782 13.7714844,17.6699219 C12.998043,18.0709655 12.0599013,18.2714844 10.9570313,18.2714844 C10.9427083,18.2714844 10.9283855,18.2750651 10.9140625,18.2822266 C10.8997395,18.2893881 10.8854167,18.2929688 10.8710938,18.2929688 C9.82551561,18.2929688 8.92676157,18.0924499 8.17480469,17.6914062 C7.4228478,17.2903626 6.80338785,16.8499373 6.31640625,16.3701172 C5.82942465,15.8902971 5.46777462,15.4391297 5.23144531,15.0166016 C4.99511601,14.5940734 4.86979174,14.3684897 4.85546875,14.3398438 C4.76953082,14.1536449 4.75878874,13.9746102 4.82324219,13.8027344 C4.88769563,13.6308585 5.0130199,13.5019536 5.19921875,13.4160156 C5.37109461,13.3444007 5.54296789,13.34082 5.71484375,13.4052734 C5.88671961,13.4697269 6.01562457,13.5878898 6.1015625,13.7597656 C6.11588549,13.7884116 6.2197256,13.971027 6.41308594,14.3076172 C6.60644628,14.6442074 6.89648244,15.0022767 7.28320312,15.3818359 C7.66992381,15.7613951 8.1604788,16.1123031 8.75488281,16.4345703 C9.34928683,16.7568375 10.0618448,16.9179688 10.8925781,16.9179688 L10.9140625,16.9072266 C10.9283855,16.9000651 10.9427083,16.8964844 10.9570313,16.8964844 C11.8307335,16.8964844 12.5790984,16.7317725 13.2021484,16.4023438 C13.8251984,16.072915 14.3336569,15.7148457 14.7275391,15.328125 C15.1214212,14.9414043 15.4114574,14.5869157 15.5976563,14.2646484 C15.7838551,13.9423812 15.8769531,13.7740886 15.8769531,13.7597656 C15.9485681,13.5878898 16.0738923,13.4697269 16.2529297,13.4052734 C16.431967,13.34082 16.607421,13.3444007 16.7792969,13.4160156 Z M11,0.375 C12.5182368,0.375 13.9469334,0.661455469 15.2861328,1.234375 C16.6253322,1.80729453 17.7926383,2.59146638 18.7880859,3.58691406 C19.7835336,4.58236175 20.5677055,5.74966778 21.140625,7.08886719 C21.7135445,8.42806659 22,9.85676324 22,11.375 C22,12.8932368 21.7135445,14.3219334 21.140625,15.6611328 C20.5677055,17.0003322 19.7835336,18.1676383 18.7880859,19.1630859 C17.7926383,20.1585336 16.6253322,20.9427055 15.2861328,21.515625 C13.9469334,22.0885445 12.5182368,22.375 11,22.375 C9.48176324,22.375 8.05306659,22.0885445 6.71386719,21.515625 C5.37466778,20.9427055 4.20736175,20.1585336 3.21191406,19.1630859 C2.21646638,18.1676383 1.43229453,17.0003322 0.859375,15.6611328 C0.286455469,14.3219334 0,12.8932368 0,11.375 C0,9.85676324 0.286455469,8.42806659 0.859375,7.08886719 C1.43229453,5.74966778 2.21646638,4.58236175 3.21191406,3.58691406 C4.20736175,2.59146638 5.37466778,1.80729453 6.71386719,1.234375 C8.05306659,0.661455469 9.48176324,0.375 11,0.375 Z M11,21 C12.3320379,21 13.5816999,20.7457708 14.7490234,20.2373047 C15.916347,19.7288386 16.9332639,19.0413455 17.7998047,18.1748047 C18.6663455,17.3082639 19.3538386,16.291347 19.8623047,15.1240234 C20.3707708,13.9566999 20.625,12.7070379 20.625,11.375 C20.625,10.0429621 20.3707708,8.79330011 19.8623047,7.62597656 C19.3538386,6.45865302 18.6663455,5.4417361 17.7998047,4.57519531 C16.9332639,3.70865452 15.916347,3.0211614 14.7490234,2.51269531 C13.5816999,2.00422923 12.3320379,1.75 11,1.75 C9.66796209,1.75 8.41830011,2.00422923 7.25097656,2.51269531 C6.08365302,3.0211614 5.0667361,3.70865452 4.20019531,4.57519531 C3.33365452,5.4417361 2.6461614,6.45865302 2.13769531,7.62597656 C1.62922923,8.79330011 1.375,10.0429621 1.375,11.375 C1.375,12.7070379 1.62922923,13.9566999 2.13769531,15.1240234 C2.6461614,16.291347 3.33365452,17.3082639 4.20019531,18.1748047 C5.0667361,19.0413455 6.08365302,19.7288386 7.25097656,20.2373047 C8.41830011,20.7457708 9.66796209,21 11,21 Z M7.5625,10.6875 C7.17577932,10.6875 6.84993622,10.5514337 6.58496094,10.2792969 C6.31998565,10.0071601 6.1875,9.6848977 6.1875,9.3125 C6.1875,8.9401023 6.31998565,8.6178399 6.58496094,8.34570312 C6.84993622,8.07356635 7.17577932,7.9375 7.5625,7.9375 C7.9348977,7.9375 8.2535794,8.07356635 8.51855469,8.34570312 C8.78352997,8.6178399 8.91601562,8.9401023 8.91601562,9.3125 C8.91601562,9.6848977 8.78352997,10.0071601 8.51855469,10.2792969 C8.2535794,10.5514337 7.9348977,10.6875 7.5625,10.6875 Z M14.4375,10.6875 C14.0507793,10.6875 13.7249362,10.5514337 13.4599609,10.2792969 C13.1949857,10.0071601 13.0625,9.6848977 13.0625,9.3125 C13.0625,8.9401023 13.1949857,8.6178399 13.4599609,8.34570312 C13.7249362,8.07356635 14.0507793,7.9375 14.4375,7.9375 C14.8098977,7.9375 15.1285794,8.07356635 15.3935547,8.34570312 C15.65853,8.6178399 15.7910156,8.9401023 15.7910156,9.3125 C15.7910156,9.6848977 15.65853,10.0071601 15.3935547,10.2792969 C15.1285794,10.5514337 14.8098977,10.6875 14.4375,10.6875 Z" id="ux"></path>
        </g>
    </g>
</svg>